<?xml version="1.0" encoding="utf-8"?>
<!-- Generator: Adobe Illustrator 16.0.0, SVG Export Plug-In . SVG Version: 6.00 Build 0)  -->
<!DOCTYPE svg PUBLIC "-//W3C//DTD SVG 1.1//EN" "http://www.w3.org/Graphics/SVG/1.1/DTD/svg11.dtd">
<svg version="1.1" id="Ebene_1" xmlns="http://www.w3.org/2000/svg" xmlns:xlink="http://www.w3.org/1999/xlink" x="0px" y="0px"
	 width="330.227px" height="208.298px" viewBox="0 0 330.227 208.298" enable-background="new 0 0 330.227 208.298"
	 xml:space="preserve">
<g>
	<path fill="#737373" d="M10.511,134.612v56.973c0,2.453,0.49,4.188,1.472,5.203c0.98,1.017,2.697,1.524,5.151,1.524h25.753
		l0.525,8.094c-6.798,0.631-16.119,0.946-27.961,0.946C5.15,207.353,0,202.587,0,193.057v-58.444H10.511z"/>
	<path fill="#737373" d="M53.819,164.36l-0.946-7.463c9.25-1.611,17.555-2.418,24.913-2.418c6.236,0,10.827,1.261,13.77,3.783
		c2.943,2.523,4.415,6.904,4.415,13.141v35.738h-7.989l-1.156-8.094c-5.887,6.027-12.719,9.04-20.498,9.04
		c-4.767,0-8.567-1.261-11.405-3.784c-2.838-2.522-4.257-6.097-4.257-10.722v-5.36c0-4.064,1.261-7.217,3.784-9.461
		c2.522-2.242,6.097-3.363,10.722-3.363h20.603v-3.994c-0.07-3.154-0.806-5.325-2.208-6.518c-1.402-1.191-4.065-1.787-7.989-1.787
		C71.724,163.099,64.471,163.519,53.819,164.36z M60.967,189.588v2.733c0,2.522,0.594,4.346,1.787,5.465
		c1.191,1.123,3.083,1.683,5.676,1.683c6.097,0,11.878-2.382,17.344-7.147v-9.25h-18.71c-2.244,0.07-3.82,0.648-4.73,1.734
		C61.422,185.892,60.967,187.485,60.967,189.588z"/>
	<path fill="#737373" d="M132.445,184.437h-1.997l-13.875,22.705h-11.037l16.818-26.488l-15.557-24.808h10.932l12.614,20.708h2.208
		l12.509-20.708h10.932l-15.452,24.808l16.818,26.488H146.32L132.445,184.437z"/>
	<path fill="#737373" d="M167.763,164.36l-0.946-7.463c9.25-1.611,17.555-2.418,24.912-2.418c6.236,0,10.828,1.261,13.771,3.783
		c2.943,2.523,4.415,6.904,4.415,13.141v35.738h-7.988l-1.156-8.094c-5.887,6.027-12.72,9.04-20.498,9.04
		c-4.767,0-8.567-1.261-11.405-3.784c-2.838-2.522-4.257-6.097-4.257-10.722v-5.36c0-4.064,1.261-7.217,3.784-9.461
		c2.522-2.242,6.097-3.363,10.722-3.363h20.603v-3.994c-0.07-3.154-0.806-5.325-2.208-6.518c-1.402-1.191-4.064-1.787-7.988-1.787
		C185.667,163.099,178.415,163.519,167.763,164.36z M174.911,189.588v2.733c0,2.522,0.594,4.346,1.787,5.465
		c1.191,1.123,3.083,1.683,5.676,1.683c6.097,0,11.878-2.382,17.344-7.147v-9.25h-18.71c-2.244,0.07-3.82,0.648-4.73,1.734
		C175.366,185.892,174.911,187.485,174.911,189.588z"/>
	<path fill="#737373" d="M258.163,154.479l-1.157,9.564h-3.153c-3.994,0-10.127,1.963-18.395,5.887v37.211H225.26v-51.296h7.885
		l1.051,7.778c7.637-6.097,14.82-9.145,21.549-9.145H258.163z"/>
	<path fill="#FF9900" d="M276.461,134.612v59.601c0,4.556-1.104,7.989-3.311,10.302c-2.208,2.313-5.484,3.432-9.828,3.363
		c-2.313,0-4.801-0.281-7.464-0.841l0.525-2.943h5.887c6.586,0,9.881-3.293,9.881-9.881v-59.601H276.461z"/>
	<path fill="#FF9900" d="M314.565,173.82l-15.768-2.628c-5.045-0.77-8.672-2.662-10.879-5.676c-2.207-3.013-3.312-7.463-3.312-13.35
		c0-4.273,0.421-7.69,1.262-10.249c0.841-2.558,2.294-4.45,4.362-5.677c2.066-1.225,4.31-2.014,6.728-2.365
		c2.417-0.35,5.729-0.489,9.933-0.42c7.498,0.141,14.226,0.631,20.183,1.472l-0.421,3.153c-9.67-0.489-16.223-0.736-19.656-0.736
		c-2.522,0-4.451,0.037-5.781,0.105c-1.332,0.07-2.804,0.246-4.414,0.525c-1.613,0.281-2.805,0.736-3.574,1.367
		c-0.772,0.631-1.543,1.489-2.313,2.575c-0.772,1.087-1.279,2.47-1.524,4.151c-0.247,1.682-0.368,3.75-0.368,6.202
		c0,4.906,0.822,8.462,2.471,10.669c1.646,2.208,4.431,3.627,8.356,4.258l15.767,2.628c5.325,0.772,9.094,2.646,11.301,5.624
		s3.311,7.551,3.311,13.717c0,4.205-0.456,7.605-1.366,10.196c-0.911,2.594-2.417,4.538-4.521,5.834
		c-2.102,1.298-4.398,2.138-6.885,2.522c-2.488,0.385-5.799,0.578-9.934,0.578c-7.849,0-15.067-0.456-21.653-1.366l0.315-3.259
		c8.268,0.563,15.451,0.807,21.549,0.736c3.643-0.068,6.48-0.279,8.514-0.631c2.032-0.35,3.838-1.051,5.414-2.102
		c1.576-1.052,2.662-2.576,3.258-4.573s0.895-4.642,0.895-7.937c0-5.256-0.842-8.969-2.523-11.143
		C321.608,175.854,318.7,174.451,314.565,173.82z"/>
</g>
<g>
	<polygon fill="#FF9900" points="115.121,85.145 161.633,120.534 160.218,34.897 97.248,14.162 	"/>
	<polygon fill="#737373" points="213.433,85.145 166.919,120.535 168.336,34.897 231.306,14.161 	"/>
	<polygon fill="#8C8C8C" points="164.277,28.326 99.589,9.582 164.277,0 228.965,9.582 	"/>
</g>
</svg>
